# xmcd
#
# Track frame offsets:
# 150
# 12932
# 33549
# 45822
# 62492
# 78944
# 95048
# 113936
# 131236
# 146466
# 163663
# 181480
#
# Disc length: 2563 seconds
#
# Revision: 2
# Processed by: cddbd v1.4PL0 Copyright (c) Steve Scherf et al.
# Submitted via: Axialis_AX_CDPlayer 2.6
#
DISCID=9b0a010c
DTITLE=Joe Diffie - Greatest Hits
DYEAR=1900
DGENRE=
TTITLE0=2:48 - Third Rock Frome The Sun
TTITLE1=4:34 - John Deere Green
TTITLE2=2:41 - Texas Size Heartache
TTITLE3=3:39 - Ships That Don't Come In
TTITLE4=3:36 - Pickup Man
TTITLE5=3:32 - So Help Me Girl
TTITLE6=4:09 - Poor Me
TTITLE7=3:49 - Honky Tonk Attitude
TTITLE8=3:20 - Home
TTITLE9=3:46 - Prop Me Up Beside The Jukebox (If I Die)
TTITLE10=3:55 - Bigger Than The Beatles
TTITLE11=2:20 - Hurt Me All The Time
EXTD=
EXTT0=
EXTT1=
EXTT2=
EXTT3=
EXTT4=
EXTT5=
EXTT6=
EXTT7=
EXTT8=
EXTT9=
EXTT10=
EXTT11=
PLAYORDER=
